# Blender v2.77 (sub 0) OBJ File: ''
# www.blender.org
mtllib Gold Ring.mtl
o ShapeIndexedFaceSet.099
v -0.006271 -1.280145 -0.432495
v 1.085234 -0.643941 -0.460897
v 1.500288 -0.863396 -0.007092
v -0.006271 -1.280145 -0.432495
v 1.500288 -0.863396 -0.007092
v 0.000966 -1.727679 0.031745
v 1.084520 0.627823 -0.484266
v 1.500288 -0.863396 -0.007092
v 1.085234 -0.643941 -0.460897
v 1.084520 0.627823 -0.484266
v 1.499319 0.864283 -0.038838
v 1.500288 -0.863396 -0.007092
v 1.499319 0.864283 -0.038838
v 1.099193 -0.627177 0.450828
v 1.500288 -0.863396 -0.007092
v 1.499319 0.864283 -0.038838
v 1.098478 0.644587 0.427459
v 1.099193 -0.627177 0.450828
v 1.098478 0.644587 0.427459
v 1.085234 -0.643941 -0.460897
v 1.099193 -0.627177 0.450828
v 1.098478 0.644587 0.427459
v 1.084520 0.627823 -0.484266
v 1.085234 -0.643941 -0.460897
v 0.007687 -1.263382 0.479231
v 1.085234 -0.643941 -0.460897
v -0.006271 -1.280145 -0.432495
v 0.007687 -1.263382 0.479231
v 1.099193 -0.627177 0.450828
v 1.085234 -0.643941 -0.460897
v -1.084529 -0.627823 0.484264
v -0.006271 -1.280145 -0.432495
v -1.098487 -0.644587 -0.427461
v -1.084529 -0.627823 0.484264
v 0.007687 -1.263382 0.479231
v -0.006271 -1.280145 -0.432495
v 0.000966 -1.727679 0.031745
v 1.500288 -0.863396 -0.007092
v 0.007687 -1.263382 0.479231
v 1.500288 -0.863396 -0.007092
v 1.099193 -0.627177 0.450828
v 0.007687 -1.263382 0.479231
v 0.000966 -1.727679 0.031745
v -1.499328 -0.864283 0.038836
v -1.098487 -0.644587 -0.427461
v 0.000966 -1.727679 0.031745
v -1.098487 -0.644587 -0.427461
v -0.006271 -1.280145 -0.432495
v -1.099200 0.627177 -0.450830
v -1.084529 -0.627823 0.484264
v -1.098487 -0.644587 -0.427461
v -1.099200 0.627177 -0.450830
v -1.085240 0.643941 0.460895
v -1.084529 -0.627823 0.484264
v 0.006262 1.280145 0.432493
v -1.099200 0.627177 -0.450830
v -0.007698 1.263381 -0.479232
v 0.006262 1.280145 0.432493
v -1.085240 0.643941 0.460895
v -1.099200 0.627177 -0.450830
v -1.084529 -0.627823 0.484264
v -1.499328 -0.864283 0.038836
v 0.000966 -1.727679 0.031745
v -1.500297 0.863396 0.007090
v -1.085240 0.643941 0.460895
v 0.006262 1.280145 0.432493
v 1.098478 0.644587 0.427459
v -0.007698 1.263381 -0.479232
v 1.084520 0.627823 -0.484266
v 1.098478 0.644587 0.427459
v 0.006262 1.280145 0.432493
v -0.007698 1.263381 -0.479232
v -0.000973 1.727679 -0.031747
v 1.499319 0.864283 -0.038838
v 1.084520 0.627823 -0.484266
v 0.006262 1.280145 0.432493
v 1.098478 0.644587 0.427459
v -0.000973 1.727679 -0.031747
v 1.098478 0.644587 0.427459
v 1.499319 0.864283 -0.038838
v -0.000973 1.727679 -0.031747
v -0.000973 1.727679 -0.031747
v 1.084520 0.627823 -0.484266
v -0.007698 1.263381 -0.479232
v -0.007698 1.263381 -0.479232
v -1.500297 0.863396 0.007090
v -0.000973 1.727679 -0.031747
v -0.007698 1.263381 -0.479232
v -1.099200 0.627177 -0.450830
v -1.500297 0.863396 0.007090
v 0.007687 -1.263382 0.479231
v -1.084529 -0.627823 0.484264
v 0.000966 -1.727679 0.031745
v -0.000973 1.727679 -0.031747
v -1.500297 0.863396 0.007090
v 0.006262 1.280145 0.432493
v -1.500297 0.863396 0.007090
v -1.098487 -0.644587 -0.427461
v -1.499328 -0.864283 0.038836
v -1.500297 0.863396 0.007090
v -1.099200 0.627177 -0.450830
v -1.098487 -0.644587 -0.427461
v -1.085240 0.643941 0.460895
v -1.499328 -0.864283 0.038836
v -1.084529 -0.627823 0.484264
v -1.085240 0.643941 0.460895
v -1.500297 0.863396 0.007090
v -1.499328 -0.864283 0.038836
vt 1.0307 0.1595
vt 0.4127 0.9366
vt 0.3225 0.0687
vt 1.0307 0.1595
vt 0.3225 0.0687
vt 0.3225 0.0687
vt 1.1525 0.8735
vt 0.3225 0.0687
vt 1.2951 0.5228
vt 1.1525 0.8735
vt 0.4907 0.7923
vt 0.3225 0.0687
vt 0.4907 0.7923
vt 0.3592 0.4760
vt 0.3225 0.0687
vt 0.4907 0.7923
vt 0.2999 0.7974
vt 0.3592 0.4760
vt 0.4314 0.3916
vt 0.4127 0.9366
vt 0.3592 0.4760
vt 0.4314 0.3916
vt 0.4314 0.3916
vt 0.4127 0.9366
vt 0.2276 0.0240
vt 0.4127 0.9366
vt 0.5046 1.6842
vt 0.2276 0.0240
vt 0.3592 0.4760
vt 0.4127 0.9366
vt 0.6449 0.8200
vt 1.0307 0.1595
vt 0.6449 0.8200
vt 0.6449 0.8200
vt 0.2276 0.0240
vt 1.0307 0.1595
vt 0.3225 0.0687
vt 0.3225 0.0687
vt 0.2276 0.0240
vt 0.3225 0.0687
vt 0.3592 0.4760
vt 0.2276 0.0240
vt 0.5778 -0.2298
vt 0.2098 0.4989
vt 0.6449 0.8200
vt 0.5778 -0.2298
vt 0.6449 0.8200
vt 0.5046 1.6842
vt 0.6635 0.2774
vt 0.6449 0.8200
vt 0.6449 0.8200
vt 0.6635 0.2774
vt 0.6635 0.2774
vt 0.6449 0.8200
vt 0.0318 1.0563
vt 0.6635 0.2774
vt 0.5721 -0.4571
vt 0.0318 1.0563
vt 0.6635 0.2774
vt 0.6635 0.2774
vt 0.6449 0.8200
vt 0.2098 0.4989
vt 0.5778 -0.2298
vt 0.2390 1.0461
vt 0.6635 0.2774
vt 0.0318 1.0563
vt 0.4314 0.3916
vt 0.5721 -0.4571
vt 0.4314 0.3916
vt 0.4314 0.3916
vt 0.0318 1.0563
vt 0.5721 -0.4571
vt 0.3432 1.4209
vt 0.4907 0.7923
vt 0.4314 0.3916
vt 0.0318 1.0563
vt 0.4314 0.3916
vt 0.3432 1.4209
vt 0.4314 0.3916
vt 0.4907 0.7923
vt 0.3432 1.4209
vt 0.3432 1.4209
vt 0.4314 0.3916
vt 0.5721 -0.4571
vt 0.5721 -0.4571
vt 0.2390 1.0461
vt 0.3432 1.4209
vt 0.5721 -0.4571
vt 0.6635 0.2774
vt 0.2390 1.0461
vt 0.2276 0.0240
vt 0.6449 0.8200
vt 0.5778 -0.2298
vt 0.3432 1.4209
vt 0.2390 1.0461
vt 0.0318 1.0563
vt 0.2390 1.0461
vt 0.7490 0.5012
vt 0.2098 0.4989
vt 0.2390 1.0461
vt 0.7306 0.8249
vt 0.7490 0.5012
vt -0.2132 0.7581
vt 0.2098 0.4989
vt -0.1657 0.4486
vt -0.2132 0.7581
vt 0.2390 1.0461
vt 0.2098 0.4989
vn 0.3676 -0.6599 -0.6553
vn 0.3675 -0.6667 -0.6484
vn 0.7349 -0.0120 -0.6780
vn 0.7554 0.0125 0.6552
vn -0.9999 -0.0003 0.0153
vn -0.5037 0.8638 -0.0082
vn 0.5027 0.8641 -0.0236
vn 0.3876 -0.6426 0.6609
vn 0.3878 -0.6356 0.6676
vn -0.3844 -0.6627 -0.6427
vn -0.3904 -0.6658 -0.6358
vn 0.9999 0.0003 -0.0153
vn 0.5037 -0.8638 0.0082
vn -0.3642 -0.6384 0.6781
vn -0.3676 0.6599 0.6553
vn -0.5027 -0.8641 0.0236
vn 0.3642 0.6384 -0.6781
vn 0.3904 0.6658 0.6358
vn 0.3844 0.6627 0.6427
vn 0.3704 0.6418 -0.6715
vn -0.3876 0.6426 -0.6609
vn -0.3878 0.6356 -0.6676
vn -0.3704 -0.6418 0.6715
vn -0.3675 0.6667 0.6484
vn -0.7554 -0.0125 -0.6552
vn -0.7349 0.0120 0.6780
usemtl Material.001
s 1
f 1/1/1 2/2/1 3/3/1
f 4/4/2 5/5/2 6/6/2
f 7/7/3 8/8/3 9/9/3
f 10/10/3 11/11/3 12/12/3
f 13/13/4 14/14/4 15/15/4
f 16/16/4 17/17/4 18/18/4
f 19/19/5 20/20/5 21/21/5
f 22/22/5 23/23/5 24/24/5
f 25/25/6 26/26/6 27/27/6
f 28/28/6 29/29/6 30/30/6
f 31/31/7 32/32/7 33/33/7
f 34/34/7 35/35/7 36/36/7
f 37/37/8 38/38/8 39/39/8
f 40/40/9 41/41/9 42/42/9
f 43/43/10 44/44/10 45/45/10
f 46/46/11 47/47/11 48/48/11
f 49/49/12 50/50/12 51/51/12
f 52/52/12 53/53/12 54/54/12
f 55/55/13 56/56/13 57/57/13
f 58/58/13 59/59/13 60/60/13
f 61/61/14 62/62/14 63/63/14
f 64/64/15 65/65/15 66/66/15
f 67/67/16 68/68/16 69/69/16
f 70/70/16 71/71/16 72/72/16
f 73/73/17 74/74/17 75/75/17
f 76/76/18 77/77/18 78/78/18
f 79/79/19 80/80/19 81/81/19
f 82/82/20 83/83/20 84/84/20
f 85/85/21 86/86/21 87/87/21
f 88/88/22 89/89/22 90/90/22
f 91/91/23 92/92/23 93/93/23
f 94/94/24 95/95/24 96/96/24
f 97/97/25 98/98/25 99/99/25
f 100/100/25 101/101/25 102/102/25
f 103/103/26 104/104/26 105/105/26
f 106/106/26 107/107/26 108/108/26
