# Blender v2.77 (sub 0) OBJ File: ''
# www.blender.org
mtllib Smart Bomb.mtl
o Mesh_0170
v -0.610100 -1.370400 1.000000
v -1.114700 -1.003700 1.000000
v -0.813500 -1.827100 0.500000
v -1.486300 -1.338300 0.500000
v -1.902100 -0.618000 0.500000
v -1.426600 -0.463500 1.000000
v -1.261500 -0.409900 1.150000
v -0.985700 -0.887500 1.150000
v -1.491800 0.156800 1.000000
v -1.989000 0.209100 0.500000
v -1.732100 1.000000 0.500000
v -1.299100 0.750000 1.000000
v -1.175600 1.618000 0.500000
v -0.881700 1.213600 1.000000
v -0.311900 1.467300 1.000000
v -0.415800 1.956300 0.500000
v 0.415800 1.956300 0.500000
v 0.311900 1.467300 1.000000
v 0.275800 1.297400 1.150000
v -0.275800 1.297400 1.150000
v 0.881700 1.213600 1.000000
v 1.175600 1.618000 0.500000
v 1.732100 1.000000 0.500000
v 1.299100 0.750000 1.000000
v 1.989000 0.209100 0.500000
v 1.491800 0.156800 1.000000
v 1.426600 -0.463500 1.000000
v 1.902100 -0.618000 0.500000
v 1.486300 -1.338300 0.500000
v 1.114700 -1.003700 1.000000
v 0.985700 -0.887500 1.150000
v 1.261500 -0.409900 1.150000
v 0.610100 -1.370400 1.000000
v 0.813500 -1.827100 0.500000
v -0.000000 -2.000000 0.500000
v -0.000000 -1.500000 1.000000
v -0.813500 -1.827100 0.350000
v -1.486300 -1.338300 0.350000
v -1.902100 -0.618000 0.350000
v -1.989000 0.209100 0.350000
v -1.732100 1.000000 0.350000
v -1.175600 1.618000 0.350000
v -0.415800 1.956300 0.350000
v 0.415800 1.956300 0.350000
v 1.175600 1.618000 0.350000
v 1.732100 1.000000 0.350000
v 1.989000 0.209100 0.350000
v 1.902100 -0.618000 0.350000
v 1.486300 -1.338300 0.350000
v 0.813500 -1.827100 0.350000
v -0.000000 -2.000000 0.350000
v -0.153000 -0.343700 -1.650000
v -0.279600 -0.251700 -1.650000
v -0.357800 -0.116300 -1.650000
v -0.374200 0.039300 -1.650000
v -0.325800 0.188100 -1.650000
v -0.221100 0.304400 -1.650000
v -0.078200 0.368000 -1.650000
v 0.078200 0.368000 -1.650000
v 0.221100 0.304400 -1.650000
v 0.325800 0.188100 -1.650000
v 0.374200 0.039300 -1.650000
v 0.357800 -0.116300 -1.650000
v 0.279600 -0.251700 -1.650000
v 0.153000 -0.343700 -1.650000
v 0.000000 -0.376200 -1.650000
v -1.319100 0.138600 0.900000
v -0.000000 0.000000 1.000000
v -1.148700 0.663200 0.900000
v -0.779600 1.073100 0.900000
v 0.240300 1.130600 0.900000
v 0.275800 1.297400 0.900000
v 0.779600 1.073100 0.900000
v -0.240300 1.130600 0.900000
v -0.275800 1.297400 0.900000
v 1.148700 0.663200 0.900000
v 1.261500 -0.409900 0.900000
v 1.099300 -0.357200 0.900000
v -0.539500 -1.211700 0.900000
v -0.000000 -1.326400 0.900000
v 0.539500 -1.211700 0.900000
v 0.858900 -0.773400 0.900000
v 0.985700 -0.887500 0.900000
v 0.000000 -0.000000 -1.850000
v -1.261500 -0.409900 0.900000
v -0.985700 -0.887500 0.900000
v 1.319100 0.138600 0.900000
v -1.099300 -0.357200 0.900000
v -0.858900 -0.773400 0.900000
vt 0.8174 -0.0073
vt 0.7111 -0.0073
vt 0.8354 -0.2427
vt 0.6932 -0.2427
vt 0.6902 -0.5037
vt 0.9887 -0.5037
vt 0.7275 -0.8694
vt 0.9514 -0.8694
vt 0.7404 -0.9964
vt 0.9384 -0.9964
vt 0.8174 -0.0073
vt 0.7111 -0.0073
vt 0.8354 -0.2427
vt 0.6932 -0.2427
vt 0.7282 -0.2427
vt 0.7653 -0.0073
vt 0.9020 -0.2427
vt 0.8980 -0.0073
vt 0.7282 -0.2427
vt 0.7653 -0.0073
vt 0.8174 -0.0073
vt 0.7111 -0.0073
vt 0.8354 -0.2427
vt 0.6932 -0.2427
vt 0.6902 -0.5037
vt 0.9887 -0.5037
vt 0.7275 -0.8694
vt 0.9514 -0.8694
vt 0.7404 -0.9964
vt 0.9384 -0.9964
vt 0.8174 -0.0073
vt 0.7111 -0.0073
vt 0.8354 -0.2427
vt 0.6932 -0.2427
vt 0.7282 -0.2427
vt 0.7653 -0.0073
vt 0.9020 -0.2427
vt 0.8980 -0.0073
vt 0.7282 -0.2427
vt 0.7653 -0.0073
vt 0.8174 -0.0073
vt 0.7111 -0.0073
vt 0.8354 -0.2427
vt 0.6932 -0.2427
vt 0.6902 -0.5037
vt 0.9887 -0.5037
vt 0.7275 -0.8694
vt 0.9514 -0.8694
vt 0.7404 -0.9964
vt 0.9384 -0.9964
vt 0.8174 -0.0073
vt 0.7111 -0.0073
vt 0.8354 -0.2427
vt 0.6932 -0.2427
vt 0.7282 -0.2427
vt 0.7653 -0.0073
vt 0.9020 -0.2427
vt 0.8980 -0.0073
vt 0.7282 -0.2427
vt 0.7653 -0.0073
vt 0.6936 -0.0113
vt 0.8350 -0.0113
vt 0.6936 -0.2288
vt 0.8350 -0.2288
vt 0.6936 -0.0113
vt 0.8350 -0.0113
vt 0.6936 -0.2288
vt 0.8350 -0.2288
vt 0.6936 -0.0113
vt 0.8350 -0.0113
vt 0.6936 -0.2288
vt 0.8350 -0.2288
vt 0.7231 -0.2288
vt 0.7231 -0.0113
vt 0.9047 -0.2288
vt 0.9047 -0.0113
vt 0.7231 -0.2288
vt 0.7231 -0.0113
vt 0.6936 -0.0113
vt 0.8350 -0.0113
vt 0.6936 -0.2288
vt 0.8350 -0.2288
vt 0.6936 -0.0113
vt 0.8350 -0.0113
vt 0.6936 -0.2288
vt 0.8350 -0.2288
vt 0.6936 -0.0113
vt 0.8350 -0.0113
vt 0.6936 -0.2288
vt 0.8350 -0.2288
vt 0.7231 -0.2288
vt 0.7231 -0.0113
vt 0.9047 -0.2288
vt 0.9047 -0.0113
vt 0.7231 -0.2288
vt 0.7231 -0.0113
vt 0.6936 -0.0113
vt 0.8350 -0.0113
vt 0.6936 -0.2288
vt 0.8350 -0.2288
vt 0.6936 -0.0113
vt 0.8350 -0.0113
vt 0.6936 -0.2288
vt 0.8350 -0.2288
vt 0.6936 -0.0113
vt 0.8350 -0.0113
vt 0.6936 -0.2288
vt 0.8350 -0.2288
vt 0.7231 -0.2288
vt 0.7231 -0.0113
vt 0.9047 -0.2288
vt 0.9047 -0.0113
vt 0.7231 -0.2288
vt 0.7231 -0.0113
vt 0.8292 -0.0163
vt 0.6994 -0.0163
vt 0.7790 -0.2427
vt 0.7496 -0.2427
vt 0.8292 -0.0163
vt 0.6994 -0.0163
vt 0.7790 -0.2427
vt 0.7496 -0.2427
vt 0.8292 -0.0163
vt 0.6994 -0.0163
vt 0.7790 -0.2427
vt 0.7496 -0.2427
vt 0.8375 -0.2427
vt 0.7270 -0.0163
vt 0.8786 -0.2427
vt 0.9041 -0.0163
vt 0.8375 -0.2427
vt 0.7270 -0.0163
vt 0.8292 -0.0163
vt 0.6994 -0.0163
vt 0.7790 -0.2427
vt 0.7496 -0.2427
vt 0.8292 -0.0163
vt 0.6994 -0.0163
vt 0.7790 -0.2427
vt 0.7496 -0.2427
vt 0.8292 -0.0163
vt 0.6994 -0.0163
vt 0.7790 -0.2427
vt 0.7496 -0.2427
vt 0.8375 -0.2427
vt 0.7270 -0.0163
vt 0.8786 -0.2427
vt 0.9041 -0.0163
vt 0.8375 -0.2427
vt 0.7270 -0.0163
vt 0.8292 -0.0163
vt 0.6994 -0.0163
vt 0.7790 -0.2427
vt 0.7496 -0.2427
vt 0.8292 -0.0163
vt 0.6994 -0.0163
vt 0.7790 -0.2427
vt 0.7496 -0.2427
vt 0.8292 -0.0163
vt 0.6994 -0.0163
vt 0.7790 -0.2427
vt 0.7496 -0.2427
vt 0.8375 -0.2427
vt 0.7270 -0.0163
vt 0.8786 -0.2427
vt 0.9041 -0.0163
vt 0.8375 -0.2427
vt 0.7270 -0.0163
vt 0.0093 -0.3855
vt 0.3383 -0.4383
vt 0.0518 -0.1855
vt 0.1439 -0.0293
vt 0.8394 -1.2239
vt 0.8394 -1.3002
vt 0.6879 -1.2239
vt 0.6879 -1.2721
vt 0.5328 -0.0293
vt 0.3983 -0.0074
vt 0.2784 -0.0074
vt 0.2695 0.0562
vt 0.6248 -0.1855
vt 0.6879 -1.2721
vt 0.8394 -1.3002
vt 0.6879 -1.2239
vt 0.8394 -1.2239
vt 0.2038 -0.9001
vt 0.3383 -0.9438
vt 0.4729 -0.9001
vt 0.5526 -0.7331
vt 0.5842 -0.7766
vt 0.9490 -0.1837
vt 0.9490 -0.1678
vt 0.9227 -0.1243
vt 0.9490 -0.1444
vt 0.9490 -0.1175
vt 0.9490 -0.0918
vt 0.9490 -0.0717
vt 0.9490 -0.0607
vt 0.9490 -0.0607
vt 0.9490 -0.0717
vt 0.9490 -0.0918
vt 0.9490 -0.1175
vt 0.9490 -0.1444
vt 0.9490 -0.1678
vt 0.9490 -0.1837
vt 0.9490 -0.1893
vt 0.8319 -0.0073
vt 0.6964 -0.0073
vt 0.8240 -0.2887
vt 0.7043 -0.2887
vt 0.8319 -0.0073
vt 0.6964 -0.0073
vt 0.8240 -0.2887
vt 0.7043 -0.2887
vt 0.7838 -0.2887
vt 0.7694 -0.0073
vt 0.8959 -0.2887
vt 0.8959 -0.0073
vt 0.7838 -0.2887
vt 0.7694 -0.0073
vt 0.8319 -0.0073
vt 0.6964 -0.0073
vt 0.8240 -0.2887
vt 0.7043 -0.2887
vt 0.8319 -0.0073
vt 0.6964 -0.0073
vt 0.8240 -0.2887
vt 0.7043 -0.2887
vt 0.7838 -0.2887
vt 0.7694 -0.0073
vt 0.8959 -0.2887
vt 0.8959 -0.0073
vt 0.7838 -0.2887
vt 0.7694 -0.0073
vt 0.8319 -0.0073
vt 0.6964 -0.0073
vt 0.8240 -0.2887
vt 0.7043 -0.2887
vt 0.8319 -0.0073
vt 0.6964 -0.0073
vt 0.8240 -0.2887
vt 0.7043 -0.2887
vt 0.7838 -0.2887
vt 0.7694 -0.0073
vt 0.8959 -0.2887
vt 0.8959 -0.0073
vt 0.7838 -0.2887
vt 0.7694 -0.0073
vt 0.6125 -0.5744
vt 0.6673 -0.3855
vt 0.8394 -1.2239
vt 0.8394 -1.3002
vt 0.6879 -1.2239
vt 0.6879 -1.2721
vt 0.6879 -1.3002
vt 0.6879 -1.2241
vt 0.8394 -1.3002
vt 0.8394 -1.2241
vt 0.6879 -1.2721
vt 0.6879 -1.2239
vt 0.8394 -1.2239
vt 0.6879 -1.2721
vt 0.8394 -1.3002
vt 0.6879 -1.2239
vt 0.8394 -1.2239
vt 0.6879 -1.3002
vt 0.6879 -1.2241
vt 0.8394 -1.2241
vt 0.6879 -1.2241
vt 0.8394 -1.2241
vt 0.6879 -1.3002
vt 0.8394 -1.2239
vt 0.8394 -1.3002
vt 0.6879 -1.2239
vt 0.6879 -1.2721
vt 0.0925 -0.7766
vt 0.1241 -0.7331
vt 0.0641 -0.5744
vt 0.0237 -0.5945
vt 0.6529 -0.5945
vt 0.4071 0.0562
vn -0.4203 -0.5783 0.6992
vn -0.4202 -0.5783 0.6993
vn -0.6191 -0.3574 0.6992
vn -0.5989 -0.3458 0.7224
vn -0.6191 -0.3574 0.6993
vn -0.5988 -0.3458 0.7224
vn -0.5989 -0.3458 0.7223
vn -0.5734 -0.3311 0.7494
vn -0.5733 -0.3311 0.7495
vn -0.5735 -0.3311 0.7493
vn -0.7110 -0.0747 0.6992
vn -0.6799 0.2209 0.6992
vn -0.6124 0.3535 0.7071
vn -0.5312 0.4784 0.6992
vn -0.5313 0.4784 0.6992
vn -0.2908 0.6531 0.6992
vn -0.0000 0.7149 0.6992
vn 0.0000 0.6914 0.7224
vn 0.0000 0.6618 0.7496
vn 0.2908 0.6531 0.6992
vn 0.5313 0.4784 0.6992
vn 0.6124 0.3535 0.7071
vn 0.5313 0.4783 0.6992
vn 0.6799 0.2209 0.6992
vn 0.7110 -0.0747 0.6992
vn 0.6191 -0.3574 0.6993
vn 0.5988 -0.3457 0.7224
vn 0.6191 -0.3575 0.6992
vn 0.5989 -0.3458 0.7224
vn 0.5733 -0.3310 0.7495
vn 0.5989 -0.3458 0.7223
vn 0.5734 -0.3311 0.7494
vn 0.4202 -0.5783 0.6993
vn 0.4202 -0.5784 0.6992
vn 0.1486 -0.6993 0.6992
vn -0.0000 -0.7071 0.7071
vn 0.1485 -0.6993 0.6993
vn -0.1486 -0.6993 0.6993
vn -0.1486 -0.6993 0.6992
vn -0.5878 -0.8090 0.0000
vn -0.8661 -0.4999 0.0000
vn -0.9945 -0.1045 -0.0000
vn -0.9511 0.3089 -0.0000
vn -0.8660 0.5000 -0.0000
vn -0.7431 0.6692 0.0000
vn -0.4068 0.9135 0.0000
vn 0.0000 1.0000 -0.0000
vn 0.4068 0.9135 0.0000
vn 0.7431 0.6692 0.0000
vn 0.8660 0.5000 -0.0000
vn 0.9511 0.3089 0.0000
vn 0.9945 -0.1045 0.0000
vn 0.8661 -0.4999 0.0000
vn 0.5878 -0.8090 0.0000
vn 0.2079 -0.9782 0.0000
vn -0.0000 -1.0000 -0.0000
vn -0.2079 -0.9782 0.0000
vn -0.4603 -0.6335 -0.6219
vn -0.6782 -0.3915 -0.6219
vn -0.6783 -0.3912 -0.6220
vn -0.6781 -0.3917 -0.6219
vn -0.7788 -0.0818 -0.6219
vn -0.7788 -0.0821 -0.6219
vn -0.7447 0.2422 -0.6219
vn -0.6723 0.3882 -0.6303
vn -0.7448 0.2419 -0.6219
vn -0.5820 0.5239 -0.6219
vn -0.5819 0.5240 -0.6219
vn -0.3185 0.7154 -0.6219
vn -0.3184 0.7154 -0.6219
vn 0.0000 0.7831 -0.6219
vn 0.3185 0.7154 -0.6219
vn 0.3184 0.7155 -0.6219
vn 0.5820 0.5240 -0.6219
vn 0.6723 0.3883 -0.6303
vn 0.5819 0.5240 -0.6219
vn 0.6723 0.3882 -0.6303
vn 0.7447 0.2422 -0.6219
vn 0.7448 0.2419 -0.6219
vn 0.7788 -0.0818 -0.6219
vn 0.7788 -0.0821 -0.6219
vn 0.6782 -0.3915 -0.6219
vn 0.6781 -0.3916 -0.6219
vn 0.4603 -0.6335 -0.6219
vn 0.4604 -0.6335 -0.6219
vn 0.1627 -0.7660 -0.6219
vn 0.0000 -0.7763 -0.6303
vn 0.1628 -0.7660 -0.6219
vn -0.1627 -0.7660 -0.6219
vn -0.1628 -0.7660 -0.6219
vn -0.1625 -0.7660 -0.6219
vn -0.0731 0.0237 0.9970
vn -0.0651 0.0376 0.9972
vn -0.0571 0.0514 0.9970
vn 0.9781 -0.2080 -0.0001
vn 0.9781 -0.2082 0.0006
vn 0.9781 -0.2081 0.0003
vn 0.0092 0.0862 0.9962
vn 0.0051 0.0870 0.9962
vn 0.0000 0.0868 0.9962
vn -0.0034 0.0587 0.9983
vn -0.0071 0.0664 0.9978
vn 0.0000 -0.0000 1.0000
vn 0.0571 0.0514 0.9970
vn 0.3090 0.9511 -0.0004
vn 0.3089 0.9511 0.0001
vn -0.0160 -0.0752 0.9970
vn -0.0000 -0.0752 0.9972
vn 0.0234 -0.0672 0.9975
vn 0.0350 -0.0573 0.9977
vn 0.0373 -0.0272 0.9989
vn -0.2807 -0.3863 -0.8786
vn -0.3488 -0.3141 -0.8830
vn -0.3947 -0.2280 -0.8901
vn -0.4464 -0.1451 -0.8830
vn -0.4749 -0.0501 -0.8786
vn -0.4541 0.1477 -0.8786
vn -0.4065 0.2348 -0.8830
vn -0.3388 0.3051 -0.8900
vn -0.2759 0.3798 -0.8830
vn -0.1942 0.4363 -0.8786
vn 0.0000 0.4775 -0.8786
vn 0.0976 0.4592 -0.8830
vn 0.1854 0.4164 -0.8901
vn 0.2759 0.3798 -0.8830
vn 0.3549 0.3195 -0.8786
vn 0.4541 0.1477 -0.8786
vn 0.4668 0.0491 -0.8830
vn 0.4533 -0.0476 -0.8901
vn 0.4464 -0.1451 -0.8830
vn 0.4135 -0.2388 -0.8786
vn 0.2807 -0.3863 -0.8786
vn 0.1909 -0.4288 -0.8830
vn 0.0948 -0.4459 -0.8901
vn 0.0000 -0.4694 -0.8830
vn -0.0992 -0.4671 -0.8786
vn -0.2063 -0.4634 0.8618
vn 0.2063 -0.4634 0.8618
vn 0.3770 -0.3394 0.8618
vn 0.4322 -0.2495 0.8666
vn 0.3770 -0.3395 0.8617
vn 0.4825 -0.1567 0.8617
vn 0.4825 -0.1567 0.8618
vn 0.5046 0.0530 0.8617
vn 0.5047 0.0530 0.8617
vn 0.2983 0.4104 0.8617
vn 0.2982 0.4104 0.8618
vn 0.1055 0.4961 0.8618
vn 0.0000 0.4991 0.8665
vn 0.1054 0.4964 0.8617
vn -0.1055 0.4964 0.8617
vn -0.1054 0.4962 0.8618
vn -0.2982 0.4104 0.8618
vn -0.2982 0.4105 0.8617
vn -0.5047 0.0530 0.8617
vn -0.5046 0.0530 0.8617
vn -0.4825 -0.1567 0.8618
vn -0.4322 -0.2495 0.8666
vn -0.3770 -0.3395 0.8617
vn -0.3770 -0.3394 0.8618
vn 0.0763 -0.0441 0.9961
vn 0.0779 -0.0391 0.9962
vn 0.0762 -0.0185 0.9969
vn 0.0758 -0.0019 0.9971
vn 0.0731 0.0237 0.9970
vn -0.3089 0.9511 0.0001
vn -0.3090 0.9511 -0.0004
vn 0.7203 0.4161 0.5550
vn 0.7203 0.4159 0.5552
vn 0.6689 -0.7434 -0.0009
vn 0.6690 -0.7432 -0.0003
vn 0.6691 -0.7432 -0.0001
vn 0.6691 -0.7431 0.0002
vn -0.9781 -0.2082 0.0006
vn -0.9781 -0.2081 0.0003
vn -0.9781 -0.2080 -0.0001
vn 0.0000 -0.8318 0.5550
vn -0.7203 0.4159 0.5552
vn -0.7203 0.4161 0.5550
vn -0.6691 -0.7431 0.0002
vn -0.6691 -0.7432 -0.0002
vn -0.6690 -0.7432 -0.0002
vn -0.6689 -0.7434 -0.0009
vn -0.6691 -0.7432 -0.0000
vn -0.0540 -0.0394 0.9978
vn -0.0491 -0.0323 0.9983
vn -0.0752 -0.0434 0.9962
vn -0.0526 -0.0264 0.9983
vn -0.0611 -0.0271 0.9978
usemtl Tex_0055_0_png
s 1
f 1/1/1 2/2/1 3/3/1
f 2/2/2 4/4/2 3/3/2
f 5/5/3 4/6/3 6/7/4
f 4/6/5 2/8/6 6/7/7
f 6/7/7 2/8/6 7/9/8
f 2/8/6 8/10/9 7/9/10
f 6/11/11 9/12/11 5/13/11
f 9/12/11 10/14/11 5/13/11
f 10/15/12 9/16/12 11/17/13
f 9/16/12 12/18/13 11/17/13
f 11/17/13 12/18/13 13/19/14
f 12/18/13 14/20/15 13/19/15
f 14/21/16 15/22/16 13/23/16
f 15/22/16 16/24/16 13/23/16
f 17/25/17 16/26/17 18/27/18
f 16/26/17 15/28/18 18/27/18
f 18/27/18 15/28/18 19/29/19
f 15/28/18 20/30/19 19/29/19
f 18/31/20 21/32/20 17/33/20
f 21/32/20 22/34/20 17/33/20
f 22/35/21 21/36/21 23/37/22
f 21/36/23 24/38/22 23/37/22
f 23/37/22 24/38/22 25/39/24
f 24/38/22 26/40/24 25/39/24
f 26/41/25 27/42/25 25/43/25
f 27/42/25 28/44/25 25/43/25
f 29/45/26 28/46/26 30/47/27
f 28/46/28 27/48/29 30/47/27
f 30/47/27 27/48/29 31/49/30
f 27/48/31 32/50/32 31/49/32
f 30/51/33 33/52/33 29/53/33
f 33/52/34 34/54/34 29/53/34
f 34/55/35 33/56/35 35/57/36
f 33/56/37 36/58/36 35/57/36
f 35/57/36 36/58/36 3/59/38
f 36/58/36 1/60/39 3/59/39
f 3/61/40 4/62/40 37/63/40
f 4/62/40 38/64/40 37/63/40
f 4/65/41 5/66/41 38/67/41
f 5/66/41 39/68/41 38/67/41
f 5/69/42 10/70/42 39/71/42
f 10/70/42 40/72/42 39/71/42
f 40/73/43 10/74/43 41/75/44
f 10/74/43 11/76/44 41/75/44
f 41/75/44 11/76/44 42/77/45
f 11/76/44 13/78/45 42/77/45
f 13/79/46 16/80/46 42/81/46
f 16/80/46 43/82/46 42/81/46
f 16/83/47 17/84/47 43/85/47
f 17/84/47 44/86/47 43/85/47
f 17/87/48 22/88/48 44/89/48
f 22/88/48 45/90/48 44/89/48
f 45/91/49 22/92/49 46/93/50
f 22/92/49 23/94/50 46/93/50
f 46/93/50 23/94/50 47/95/51
f 23/94/50 25/96/51 47/95/51
f 25/97/52 28/98/52 47/99/52
f 28/98/52 48/100/52 47/99/52
f 28/101/53 29/102/53 48/103/53
f 29/102/53 49/104/53 48/103/53
f 29/105/54 34/106/54 49/107/54
f 34/106/54 50/108/54 49/107/54
f 50/109/55 34/110/55 51/111/56
f 34/110/55 35/112/56 51/111/56
f 51/111/56 35/112/56 37/113/57
f 35/112/56 3/114/57 37/113/57
f 37/115/58 38/116/58 52/117/58
f 38/116/58 53/118/58 52/117/58
f 38/119/59 39/120/59 53/121/59
f 39/120/60 54/122/61 53/121/61
f 39/123/62 40/124/62 54/125/62
f 40/124/62 55/126/63 54/125/63
f 55/127/64 40/128/64 56/129/65
f 40/128/66 41/130/65 56/129/65
f 56/129/65 41/130/65 57/131/67
f 41/130/65 42/132/68 57/131/68
f 42/133/69 43/134/69 57/135/69
f 43/134/70 58/136/70 57/135/70
f 43/137/71 44/138/71 58/139/71
f 44/138/71 59/140/71 58/139/71
f 44/141/72 45/142/72 59/143/72
f 45/142/73 60/144/73 59/143/73
f 60/145/74 45/146/74 61/147/75
f 45/146/76 46/148/77 61/147/75
f 61/147/75 46/148/77 62/149/78
f 46/148/77 47/150/79 62/149/78
f 47/151/80 48/152/80 62/153/80
f 48/152/81 63/154/81 62/153/81
f 48/155/82 49/156/82 63/157/82
f 49/156/83 64/158/83 63/157/83
f 49/159/84 50/160/84 64/161/84
f 50/160/85 65/162/85 64/161/85
f 65/163/86 50/164/86 66/165/87
f 50/164/88 51/166/87 66/165/87
f 66/165/87 51/166/87 52/167/89
f 51/166/87 37/168/90 52/167/91
f 67/169/92 68/170/93 69/171/93
f 68/170/93 70/172/94 69/171/93
f 19/173/95 71/174/95 18/175/95
f 71/174/96 72/176/96 18/175/97
f 73/177/98 71/178/99 68/170/100
f 71/178/99 74/179/101 68/170/100
f 68/170/100 74/179/101 70/172/102
f 74/179/101 75/180/103 70/172/102
f 73/177/104 68/170/104 76/181/104
f 77/182/105 78/183/105 27/184/105
f 78/183/106 32/185/106 27/184/106
f 79/186/107 80/187/108 68/170/109
f 80/187/108 81/188/110 68/170/109
f 68/170/109 81/188/110 82/189/111
f 81/188/110 83/190/103 82/189/111
f 52/191/112 53/192/113 84/193/114
f 53/192/113 54/194/115 84/193/114
f 84/193/114 54/194/115 55/195/116
f 55/195/117 56/196/118 84/193/119
f 56/196/118 57/197/120 84/193/119
f 84/193/119 57/197/120 58/198/121
f 58/198/122 59/199/123 84/193/124
f 59/199/123 60/200/125 84/193/124
f 84/193/124 60/200/125 61/201/126
f 61/201/127 62/202/128 84/193/129
f 62/202/128 63/203/130 84/193/129
f 84/193/129 63/203/130 64/204/131
f 64/204/132 65/205/133 84/193/134
f 65/205/133 66/206/135 84/193/134
f 84/193/134 66/206/135 52/191/136
f 21/207/137 18/208/137 73/209/137
f 18/208/137 72/210/137 73/209/137
f 15/211/138 14/212/138 75/213/138
f 14/212/138 70/214/138 75/213/138
f 70/215/139 14/216/139 69/217/140
f 14/216/141 12/218/140 69/217/140
f 69/217/140 12/218/140 67/219/142
f 12/218/140 9/220/143 67/219/143
f 9/221/144 6/222/144 67/223/144
f 6/222/145 85/224/145 67/223/145
f 2/225/146 1/226/146 86/227/146
f 1/226/147 79/228/147 86/227/147
f 79/229/148 1/230/148 80/231/149
f 1/230/150 36/232/149 80/231/149
f 80/231/149 36/232/149 81/233/151
f 36/232/149 33/234/152 81/233/152
f 33/235/153 30/236/153 81/237/153
f 30/236/154 83/238/154 81/237/154
f 27/239/155 26/240/155 77/241/155
f 26/240/156 87/242/156 77/241/156
f 87/243/157 26/244/157 76/245/158
f 26/244/157 24/246/158 76/245/158
f 76/245/158 24/246/158 73/247/159
f 24/246/158 21/248/160 73/247/160
f 82/189/161 78/249/162 68/170/163
f 78/249/162 87/250/164 68/170/163
f 68/170/163 87/250/164 76/181/165
f 7/251/166 88/252/166 6/253/166
f 88/252/167 85/254/167 6/253/167
f 88/255/168 7/256/168 89/257/168
f 7/256/169 8/258/169 89/257/169
f 86/259/170 89/257/171 2/260/172
f 89/257/173 8/261/173 2/260/173
f 75/262/174 74/263/174 15/264/175
f 74/263/176 20/265/176 15/264/176
f 71/266/177 19/267/177 74/263/177
f 19/267/177 20/268/177 74/263/177
f 31/269/178 32/270/178 82/271/178
f 32/270/179 78/183/179 82/271/179
f 31/272/180 82/273/181 30/274/182
f 82/273/181 83/275/183 30/274/184
f 86/276/103 79/186/185 89/277/186
f 79/186/185 68/170/187 89/277/186
f 89/277/186 68/170/187 88/278/188
f 68/170/187 67/169/189 88/278/188
f 88/278/188 67/169/189 85/279/103
f 87/250/103 78/249/103 77/280/103
f 71/178/103 73/177/103 72/281/103
